<svg width="660" height="233" xmlns="http://www.w3.org/2000/svg"><g fill="#43CB83" fill-rule="evenodd"><path d="M429.091163 141.011578c-2.727889 1.725651-4.166467 2.563581-4.315772 2.513813-.117188-.058594-1.464831.908193-4.042969 2.90039-.527347.527347-1.757803 1.142575-3.691406 1.845703-1.289069.527347-2.285153.791016-2.988282.791016-1.933603 0-3.354487-1.171863-4.262695-3.515625-.908208-2.343762-1.362305-5.332013-1.362305-8.964844 0-2.167979.131835-4.541002.395508-7.11914.263673-2.578138.600584-5.185534 1.010742-7.822266.410159-2.636732.864256-5.624983 1.362305-8.964844.498049-3.33986.952146-6.064442 1.362305-8.173828.410158-2.109385.747069-3.925774 1.010742-5.4492186.263673-1.5234451.395508-2.6074187.395508-3.2519532 0-4.3359591-.864249-7.7343626-2.592774-10.1953124-1.728524-2.4609499-4.057602-3.6914063-6.987304-3.6914063-2.929703 0-5.595691.5859316-7.998047 1.7578125-2.402356 1.1718809-4.541007 3.3398279-6.416016 6.5039062-.410158.7031286-1.025386 1.7871021-1.845703 3.2519532-.820317 1.464851-1.728511 3.1494045-2.724609 5.0537109-.996099 1.9043067-2.065424 3.8964737-3.208008 5.9765627-1.142584 2.080088-2.211909 4.46776-3.208008 7.163086-.996099 2.695326-1.874996 4.760735-2.636719 6.196289-.761722 1.435554-1.318357 2.475583-1.669922 3.120117h-1.757812c0-.410158.08789-1.215814.263672-2.416992.175782-1.201178.395506-3.017566.659179-5.449219.263674-2.431653.541991-4.5996.834961-6.503906.292971-1.904307.571288-3.749991.834961-5.53711.263674-1.7871179.483398-3.4277265.65918-4.9218746.175782-1.4941481.263672-2.6806596.263672-3.5595703 0-3.2226723-.615228-5.8007716-1.845703-7.734375-1.230475-1.9336034-3.427719-2.9003906-6.591797-2.9003906-3.164078 0-5.668936.908194-7.514649 2.7246094-1.845712 1.8164153-3.090817 4.0722521-3.735351 6.7675781-.820317 3.4570485-1.669918 7.6171632-2.548828 12.480469-.878911 4.863305-1.669919 10.327118-2.373047 16.391601-.53581 4.621358-1.003563 8.95345-1.403268 12.996351-1.024256.837355-2.109233 1.690784-3.254935 2.56029-3.281267 2.490247-6.76756 4.790028-10.458985 6.899414-3.691424 2.109386-7.485332 3.86718-11.381836 5.273437-3.896503 1.406258-7.602521 2.109376-11.118164 2.109376-1.113286 0-2.153315-.117187-3.120117-.351563-.966802-.234376-1.889644-.644528-2.768555-1.230469-.87891-.58594-1.743159-1.406244-2.592773-2.460937-.849614-1.054693-1.713863-2.373039-2.592773-3.955078 5.097681-1.406257 9.829079-3.369128 14.194336-5.888672 4.365256-2.519544 8.129867-5.390609 11.293945-8.613281 3.164078-3.222673 5.932605-7.089822 8.305664-11.601563 2.373059-4.511741 3.55957-8.583966 3.55957-12.216797 0-3.33986-.585931-6.3574083-1.757812-9.0527342-1.171881-2.695326-2.797841-4.9951077-4.87793-6.8994141-2.080088-1.9043064-4.526353-3.3837838-7.338867-4.4384766-2.812514-1.0546927-5.859359-1.5820312-9.140625-1.5820312-4.042989 0-7.71971.7177662-11.030274 2.1533203-3.310563 1.435554-6.298814 3.3691285-8.964843 5.8007812-2.666029 2.4316528-4.995108 5.2441247-6.987305 8.4375-1.992197 3.1933756-3.647454 6.5478336-4.96582 10.0634766-1.318366 3.515643-2.592768 7.543923-3.823243 12.084961-1.230474 4.541038-1.845703 8.452132-1.845703 11.733398 0 2.168503.136881 4.293306.410644 6.374422-.195965.132115-.39144.263167-.586425.393157-1.582039 1.054692-3.222648 2.094721-4.921875 3.120117-1.699227 1.025395-3.354484 1.933589-4.96582 2.724609-1.611336.79102-3.134759 1.420896-4.570313 1.889648-1.435554.468753-2.709955.703126-3.823242.703126-.468752 0-.966794-.336911-1.494141-1.010743-.527346-.673831-1.025388-1.582025-1.49414-2.724609-.468752-1.142584-.864256-2.431634-1.186524-3.867188-.322267-1.435554-.483398-2.915031-.483398-4.438476v-1.230469c.175782-1.171881.410155-2.373041.703125-3.603515.29297-1.230475.585936-2.38769.878906-3.47168.29297-1.08399.600585-2.094722.922852-3.032227.322267-.937504.629881-1.699216.922851-2.285156 2.695326-5.273464 5.58104-10.678683 8.657227-16.21582 3.076187-5.5371374 6.13768-11.1620811 9.18457-16.8750003 3.04689-5.7129192 5.976549-11.4696976 8.789063-17.2705078 2.812514-5.8008103 5.288075-11.5868852 7.426758-17.3583985 2.138682-5.7715132 3.837884-11.5136433 5.097656-17.2265625s1.889648-11.3232146 1.889648-16.8310547c0-2.4609498-.190428-4.8779178-.571289-7.2509765-.380861-2.3730588-1.040034-4.497061-1.977539-6.3720703-.937505-1.8750094-2.226554-3.3837834-3.867187-4.5263672C293.056632.5712833 290.976575 0 288.457031 0c-3.691424 0-7.324201 1.1132701-10.898437 3.3398438-3.574237 2.2265736-7.001937 5.2880664-10.283203 9.1845703-3.281267 3.8965038-6.416001 8.4667706-9.404297 13.7109375-2.988296 5.2441668-5.756823 10.8837588-8.305664 16.9189453-2.548841 6.0351864-4.833975 12.3339515-6.855469 18.8964844-2.021495 6.5625328-3.764641 13.0956706-5.229492 19.5996093-1.464851 6.5039388-2.578121 12.8173522-3.339844 18.9404294-.761723 6.123078-1.142578 11.791966-1.142578 17.006836 0 5.880083.427558 11.529866 1.282686 16.949475-.540739.425285-1.096557.854561-1.667452 1.28783-3.281266 2.490247-6.767559 4.790028-10.458984 6.899414-3.691425 2.109386-7.485332 3.86718-11.381836 5.273437-3.896504 1.406258-7.602522 2.109376-11.118164 2.109376-1.113287 0-2.153316-.117187-3.120117-.351563-.966802-.234376-1.889644-.644528-2.768555-1.230469-.878911-.58594-1.74316-1.406244-2.592773-2.460937-.849614-1.054693-1.713863-2.373039-2.592774-3.955078 5.097682-1.406257 9.82908-3.369128 14.194336-5.888672 4.365256-2.519544 8.129867-5.390609 11.293945-8.613281 3.164079-3.222673 5.932606-7.089822 8.305664-11.601563 2.373059-4.511741 3.559571-8.583966 3.559571-12.216797 0-3.33986-.585932-6.3574083-1.757813-9.0527342-1.171881-2.695326-2.797841-4.9951077-4.877929-6.8994141-2.080089-1.9043064-4.526354-3.3837838-7.338868-4.4384766-2.812514-1.0546927-5.859358-1.5820312-9.140625-1.5820312-4.042989 0-7.71971.7177662-11.030273 2.1533203-3.310563 1.435554-6.298815 3.3691285-8.964844 5.8007812-2.666029 2.4316528-4.995107 5.2441247-6.987305 8.4375-1.992197 3.1933756-3.647454 6.5478336-4.96582 10.0634766-1.318366 3.515643-2.592767 7.543923-3.823242 12.084961-1.230475 4.541038-1.845703 8.452132-1.845703 11.733398 0 2.467993.1773 4.879382.531903 7.234185-.814656-2.159398-1.449634-3.779761-1.90495-4.861138-.527346-1.289069-.878905-2.109373-1.054688-2.460937-3.984394 3.984395-7.602522 7.412095-10.854492 10.283203-3.251969 2.871108-6.196276 5.214835-8.833008 7.03125-2.636731 1.816415-4.980458 3.14941-7.03125 3.999023-2.050791.849614-3.808586 1.274414-5.273437 1.274414-3.867207 0-6.635734-1.127918-8.305664-3.383789-1.66993-2.25587-2.504883-5.375956-2.504883-9.360351 0-4.570336.615228-9.960907 1.845703-16.171875 2.402356-12.363343 4.101558-19.980455 5.097656-22.851563 1.992198-.175782 3.999014-.351561 6.020508-.527343 2.021495-.175783 4.086904-.380859 6.196289-.615235 1.816416-.175782 3.164058-.292968 4.042969-.351562.878911-.058594 1.494139-.102539 1.845703-.131836.351565-.029297.571289-.058594.65918-.087891.087891-.029297.278319-.058594.571289-.087891.29297-.029297.791012-.08789 1.494141-.175781.703128-.087891 1.874991-.219725 3.515625-.395508.761722-.058594 1.582026-.190428 2.460937-.395507.878911-.2050796 1.713863-.5566386 2.504883-1.0546879.79102-.4980494 1.450193-1.1572225 1.977539-1.9775391.527346-.8203166.791016-1.845697.791016-3.0761719 0-1.1132868-.117187-2.1093706-.351563-2.9882812-.234376-.8789107-.659176-1.6406218-1.274414-2.2851563-.615237-.6445344-1.464838-1.1425763-2.548828-1.4941406-1.08399-.3515643-2.504874-.5273438-4.262695-.5273438-.468753 0-.981443.0146483-1.538086.0439454-.556644.029297-1.157224.0732419-1.801758.1318359-1.406257.1171881-3.486314.2783193-6.240235.4833984-2.75392.2050792-5.976544.4248036-9.667968.6591797 1.406257-4.5117413 2.885734-9.0527115 4.438476-13.6230468 1.552742-4.5703354 3.105461-9.0380642 4.658203-13.4033204 1.552743-4.3652562 3.090813-8.6132606 4.614258-12.7441406 1.523445-4.13088 2.958978-8.0126771 4.306641-11.6455078.761722-2.0507915 1.230468-3.9697176 1.40625-5.7568359.175782-1.7871183.263672-3.3544855.263672-4.7021485 0-1.5234451-.249021-2.8564396-.747071-3.9990234-.498049-1.1425839-1.186519-2.0800745-2.065429-2.8125-.878911-.7324255-1.889643-1.2744123-3.032227-1.6259766-1.142584-.3515642-2.329095-.5273437-3.55957-.5273437-2.988296 0-5.581044.9960838-7.77832 2.9882812-2.197277 1.9921975-3.96972 4.6581865-5.317383 7.9980469-4.042989 10.0781754-7.866193 20.3466274-11.469727 30.8056641-3.603533 10.4590366-6.899399 20.5810057-9.887695 30.3662109-7.6172257.4101583-15.2050405.8203104-22.763672 1.2304688-7.5586315.4101583-14.3554386.8203104-20.390625 1.2304687 1.6406332-5.3320579 3.1787038-10.5614978 4.6142578-15.6884766 1.4355541-5.1269787 2.6806588-9.9609148 3.7353516-14.5019531 1.0546927-4.5410383 1.8896453-8.7158013 2.5048828-12.524414.6152374-3.8086128.9228515-7.0312369.9228515-9.6679688 0-5.6250281-.8349525-10.400371-2.5048828-14.3261719-1.6699302-3.9258009-3.925767-7.1191283-6.7675781-9.5800781-2.8418111-2.4609498-6.1376766-4.2480413-9.8876953-5.3613281C52.8515437 8.9941351 48.9258018 8.4375 44.8242187 8.4375c-2.75392 0-5.7714679.351559-9.0527343 1.0546875-3.2812664.7031285-6.5771319 1.7138606-9.8876953 3.0322266-3.3105635 1.3183659-6.5331875 2.9296779-9.6679688 4.8339843-3.1347813 1.9043064-5.9033083 4.0136603-8.305664 6.328125-2.4023558 2.3144647-4.321282 4.8486191-5.756836 7.6025391C.7177663 34.0429825 0 36.9433441 0 39.9902344c0 2.2851677.1171863 4.2040938.3515625 5.7568359.2343762 1.5527422.5859352 2.3291016 1.0546875 2.3291016.9375047 0 1.9775333-.2343727 3.1201172-.703125C5.668951 46.9042945 6.9140558 46.1132868 8.2617187 45c3.8672069-3.1640783 7.4560382-5.815419 10.7666016-7.9541016 3.3105634-2.1386825 6.3720563-3.8671809 9.1845703-5.1855468 2.8125141-1.318366 5.375965-2.2705049 7.6904297-2.8564454 2.3144647-.5859404 4.3505772-.8789062 6.1083984-.8789062 2.1679796 0 3.9843677.3808556 5.4492188 1.1425781 1.4648511.7617226 2.6660109 1.8163995 3.6035156 3.1640625.9375047 1.347663 1.6113261 2.9882716 2.0214844 4.921875.4101583 1.9336034.6152344 4.0429573.6152344 6.328125 0 2.8125141-.2929658 5.7714689-.8789063 8.8769532-.5859404 3.1054842-1.3769481 6.2109219-2.3730469 9.3164062-1.1132868 3.3984545-2.8710817 8.3788734-5.2734375 14.9414062-1.9336034 5.0390877-3.9550675 10.2831759-6.0644531 15.7324219h-8.4375c-3.1640783 0-6.1230331.0292966-8.8769531.0878907-2.75392.058594-5.5077987.1464837-8.2617188.2636718-2.1093855-2.6367319-3.8378838-4.555658-5.1855468-5.7568359-1.347663-1.2011779-2.5781195-1.8017578-3.6914063-1.8017578-1.8164153 0-2.7246093 1.2890496-2.7246093 3.8671875 0 .8203166.0732414 1.6406209.2197265 2.4609375.1464851.8203166.3369129 1.7578072.571289 2.8125 1.289069 3.3398604 2.9150293 6.0937391 4.8779298 8.2617191 1.9629004 2.167979 4.2040889 3.867181 6.7236328 5.097656 2.5195438 1.230475 5.2587742 2.094724 8.2177734 2.592773 2.9589992.49805 6.0497886.747071 9.2724609.747071-2.4609498 7.968789-5.390608 16.376909-8.7890625 25.224609-3.4570485 8.8477-6.2402238 18.10542-8.3496093 27.773438-.2343762.87891-.3515625 1.787104-.3515625 2.724609 0 1.523445.3076141 2.900384.9228515 4.130859.6152375 1.230475 1.4501901 2.285152 2.5048828 3.164063 1.0546928.87891 2.2558527 1.552732 3.6035157 2.021484 1.347663.468752 2.7246023.703125 4.1308593.703125 2.1679796 0 4.6288925-1.289049 7.3828125-3.867187 1.6992273-1.523445 4.5702923-6.503864 8.6132813-14.941407.8789106-2.402355 1.9482359-5.317365 3.2080078-8.745117 1.2597719-3.427751 2.6367113-7.20701 4.1308594-11.33789 1.4941481-4.13088 3.0468669-8.701147 4.6582031-13.710938 1.6113362-5.009791 3.2372965-9.975561 4.8779297-14.897461 7.1484732-.644534 14.3261358-1.318356 21.5332031-2.021484 7.2070673-.703129 14.7362889-1.46484 22.5878909-2.285156-1.171881 4.335959-2.270503 8.891577-3.2958987 13.666992-1.0253957 4.775414-1.8749966 8.803694-2.5488281 12.084961-.6738315 3.281266-1.1865217 6.210924-1.538086 8.789062-.3515642 2.578138-.5273437 4.716789-.5273437 6.416016 0 4.921899.6738214 9.301738 2.0214844 13.139648 1.347663 3.83791 3.1786993 7.075182 5.4931641 9.711914 2.314465 2.636732 5.053695 4.643548 8.217773 6.020508 3.164079 1.37696 6.591779 2.06543 10.283203 2.06543 3.222673 0 6.752911-.60058 10.590821-1.801758s7.851541-2.988269 12.041015-5.361328c4.189475-2.373059 8.496072-5.317365 12.919922-8.833008 4.161376-3.307054 8.309732-7.106603 12.445177-11.39875 1.269333 2.974656 2.895998 5.675592 4.880019 8.102852 2.75392 3.369157 6.196268 6.049794 10.327148 8.041992 4.13088 1.992197 8.950168 2.988281 14.458008 2.988281 3.515642 0 6.987287-.395504 10.415039-1.186523 3.427751-.79102 6.738265-1.845697 9.931641-3.164063 3.193375-1.318366 6.240219-2.82714 9.140625-4.526367 2.900405-1.699227 5.610339-3.427726 8.129882-5.185547 1.067392-.754721 2.123869-1.530271 3.169433-2.326651.138905.339852.280018.675949.423341 1.008292 2.021494 4.687523 4.394517 8.422837 7.11914 11.206054 2.724623 2.783217 5.66893 4.174805 8.833008 4.174805 1.992198 0 4.130848-.278318 6.416016-.834961 2.285168-.556643 4.628894-1.303706 7.03125-2.241211 2.402356-.937505 4.790027-2.00683 7.163086-3.208008 2.373059-1.201178 4.67284-2.416986 6.899414-3.647461 1.35341-.777821 2.710945-1.584551 4.072607-2.42019.330371.449183.672054.889702 1.025049 1.321558 2.75392 3.369157 6.196269 6.049794 10.327149 8.041992 4.13088 1.992197 8.950167 2.988281 14.458007 2.988281 3.515643 0 6.987288-.395504 10.415039-1.186523 3.427752-.79102 6.738266-1.845697 9.931641-3.164063 3.193375-1.318366 6.24022-2.82714 9.140625-4.526367 2.575436-1.508841 5.000692-3.040762 7.275823-4.595798.054043.644441.119002 1.282819.19488 1.915134.263673 2.197276.791012 4.160147 1.582031 5.888672.79102 1.728524 1.918938 3.105463 3.383789 4.130859 1.464852 1.025396 3.398426 1.538086 5.800782 1.538086 1.933603 0 3.632805-.439449 5.097656-1.318359 1.406257-.820317 2.724603-2.460926 3.955078-4.921875l23.027344-45.703125h1.40625c-.703129 4.687523-1.28906 9.067362-1.757813 13.139648-.468752 4.072286-.703125 7.866193-.703125 11.381836 0 8.964889 1.098622 15.776344 3.295899 20.43457 2.197276 4.658227 4.90721 6.987305 8.129883 6.987305 3.222672 0 6.298813-.468745 9.228515-1.40625 1.113287-.29297 3.955056-1.464833 8.525391-3.515625 1.677781-.734029 5.583997-2.734751 11.718747-6.002216.949224 1.664374 2.052737 3.152411 3.31055 4.46413 2.050791 2.138683 4.409166 3.779291 7.075195 4.921875 2.666029 1.142584 5.405259 1.713867 8.217774 1.713867 2.636731 0 5.273424-.439448 7.910156-1.318359 2.636732-.878911 5.170886-2.006829 7.602539-3.383789s4.672841-2.915031 6.723633-4.614258c2.050791-1.699227 3.779289-3.369132 5.185546-5.009766 1.87501 4.746118 4.10155 8.364246 6.679688 10.854493 2.578138 2.490246 5.800762 3.735351 9.667969 3.735351 3.222672 0 6.445296-.791008 9.667969-2.373047 3.222672-1.582039 6.24022-3.515613 9.052734-5.800781 2.812514-2.285168 5.346668-4.687487 7.602539-7.207031s4.05761-4.716788 5.405273-6.591797c0 0 2.283821-3.164063 3.303002-6.588493.449427-1.510069.502487-2.564281.382075-3.42019-.152651-1.085063-.125966-2.024071-.382075-2.996478-.738248-2.803021-2.085068-5.039307-3.924034-6.056687-1.838967-1.01738-3.619278-.562992-3.619278-.562992-3.103859 3.787838-5.808503 7.671699-8.679612 10.835777-1.230474 1.347663-2.534172 2.651361-3.911132 3.911133s-2.7539 2.387691-4.13086 3.383789c-1.37696.996099-2.739251 1.801755-4.086914 2.416992-1.347663.615238-2.636712.922852-3.867187.922852-1.640633 0-2.709959-.776359-3.208008-2.329102-.498049-1.552742-.74707-3.70604-.74707-6.45996 0-3.222673.498042-7.119118 1.49414-11.689454.996099-4.570335 1.8457-8.657208 2.548828-12.260742.703129-3.603533 1.347654-7.119123 1.933594-10.546875.585941-3.427751.878906-6.5478373.878906-9.3603514 0-1.8164153-.161131-3.2519478-.483398-4.3066406-.322267-1.0546928-.776364-1.8749971-1.362305-2.4609375-.58594-.5859404-1.259762-.966796-2.021484-1.1425781-.761723-.1757822-1.582027-.2636719-2.460938-.2636719-.644534 0-1.303707.0146483-1.977539.0439453-.673831.029297-1.333004.0439453-1.977539.0439453-.761722 0-1.508785-.0439448-2.241211-.1318359-.732425-.0878911-1.450191-.2783189-2.15332-.5712891-.703129-.2929702-1.28906-.7617155-1.757813-1.40625-.468752-.6445344-.952145-1.3037075-1.450195-1.977539-.498049-.6738315-1.127926-1.2744115-1.889648-1.8017579-.761723-.5273463-1.8164-.7910156-3.164063-.7910156-4.042989 0-8.012676.8642492-11.909179 2.5927735-3.896504 1.7285242-7.602522 4.0576025-11.118165 6.9873047-3.515642 2.9297021-6.752914 6.3574022-9.711914 10.2832032-2.958999 3.925801-5.727526 8.583957-8.305664 13.974609-2.578138 5.390652-4.482415 10.400368-5.71289 15.029297-.948358 3.567631-1.531249 7.065611-1.748681 10.494zm-241.532569-13.570172c2.109385 0 4.409167-.541987 6.899414-1.625976 2.490247-1.08399 4.804677-2.475578 6.943359-4.174805 2.138683-1.699227 4.233388-3.984361 6.28418-6.855469 2.050791-2.871108 3.076172-5.244131 3.076172-7.11914 0-2.636732-.483394-4.804679-1.450196-6.503907-.966801-1.6992269-2.153313-2.5488278-3.55957-2.5488278-2.519544 0-4.672843.4687454-6.459961 1.4062498-1.787118.937505-3.281244 2.153313-4.482422 3.647461-1.201178 1.494148-2.167965 3.19335-2.90039 5.097656-.732426 1.904307-1.582027 4.262682-2.548828 7.075196-.966802 2.812514-1.508789 5.126944-1.625977 6.943359-.117188 1.816415-.175781 3.369134-.175781 4.658203zM255.498047 98.4375c2.636732-4.6875234 5.434555-9.9609082 8.393555-15.8203125 2.958999-5.8594043 5.756822-11.8945002 8.393554-18.1054687 2.636732-6.2109686 4.921866-12.4071957 6.855469-18.5888672 1.933603-6.1816716 3.16406-11.9384499 3.691406-17.2705078 0-1.6992273-.043945-3.1494081-.131836-4.350586-.087891-1.2011779-.366208-1.8017578-.834961-1.8017578-1.699227 0-3.530263 1.0986218-5.493164 3.2958984-1.9629 2.1972766-3.925771 5.1708797-5.888672 8.9208985-1.9629 3.7500187-3.837881 8.1152094-5.625 13.0957031-1.787118 4.9804937-3.383782 10.283175-4.790039 15.9082031s-2.519527 11.4111031-3.339843 17.3583985c-.820317 5.9472953-1.230469 11.7333703-1.230469 17.3583984zm45.615234 29.003906c2.109386 0 4.409167-.541987 6.899414-1.625976 2.490247-1.08399 4.804677-2.475578 6.94336-4.174805 2.138682-1.699227 4.233388-3.984361 6.284179-6.855469 2.050792-2.871108 3.076172-5.244131 3.076172-7.11914 0-2.636732-.483393-4.804679-1.450195-6.503907-.966802-1.6992269-2.153313-2.5488278-3.55957-2.5488278-2.519544 0-4.672843.4687454-6.459961 1.4062498-1.787119.937505-3.281244 2.153313-4.482422 3.647461-1.201178 1.494148-2.167965 3.19335-2.900391 5.097656-.732425 1.904307-1.582026 4.262682-2.548828 7.075196-.966802 2.812514-1.508788 5.126944-1.625977 6.943359-.117188 1.816415-.175781 3.369134-.175781 4.658203zm150.38086 12.832032c0 1.464851.102538 2.885735.307617 4.262695.205079 1.37696.571286 2.607416 1.098633 3.691406.527346 1.08399 1.230464 1.962887 2.109375 2.636719.87891.673831 1.99218 1.010742 3.339843 1.010742 2.16798 0 4.130851-.937491 5.888672-2.8125 1.757822-1.875009 3.281244-4.130846 4.570313-6.767578 1.289069-2.636732 2.329097-5.361314 3.120117-8.173828.79102-2.812514 1.30371-5.156241 1.538086-7.03125l6.591797-28.7402346c-2.402356 0-4.746083.6005799-7.03125 1.8017576-2.285168 1.201178-4.438467 2.827138-6.459961 4.87793-2.021495 2.050791-3.881828 4.394518-5.581055 7.03125-1.699227 2.636732-3.369132 5.888652-5.009766 9.755859-1.640633 3.867207-2.797848 7.265611-3.471679 10.195313-.673832 2.929702-1.010742 5.683581-1.010742 8.261719zm71.191406-84.2871099c0-1.0546927.043945-2.4169838.131836-4.086914.087891-1.6699303.190429-3.5156149.307617-5.5371094.117188-2.0214945.263671-4.160145.439453-6.4160156.175782-2.2558707.351562-4.4677626.527344-6.6357422.410158-5.0976818.878903-10.5761426 1.40625-16.4355469 0-1.7578213.439449-3.3251884 1.318359-4.7021484.878911-1.37696 2.021478-2.5488233 3.427735-3.515625s2.988272-1.7138646 4.746093-2.241211c1.757822-.5273464 3.515617-.7910156 5.273438-.7910156 1.464851 0 2.871087.1904278 4.21875.571289 1.347663.3808613 2.548823.9521447 3.603516 1.7138672 1.054692.7617226 1.889645 1.7578064 2.504882 2.9882813.615238 1.2304749.922852 2.6660074.922852 4.3066406 0 .7031285-.058593 1.4208948-.175781 2.1533203-.117188.7324256-.292968 1.508785-.527344 2.3291016-.820317 2.8125141-1.713862 5.9033035-2.680664 9.2724609-.966802 3.3691575-1.962886 6.7236162-2.988281 10.0634766-1.025396 3.3398604-2.02148 6.5185396-2.988282 9.5361328-.966801 3.0175932-1.831051 5.5810442-2.592773 7.6904297-.996099 2.8125141-2.416983 4.9072197-4.262695 6.2841797-1.845713 1.37696-3.706046 2.0654297-5.581055 2.0654297s-3.515618-.7177663-4.921875-2.1533203c-1.406257-1.4355541-2.109375-3.5888529-2.109375-6.459961zm51.623047 71.9824219c2.050791-1.875009 4.101552-4.057605 6.152344-6.547852 2.050791-2.490246 3.676751-4.526359 4.877929-6.108398s2.622062-3.45702 4.262695-5.625c1.640634-2.16798 3.632801-4.81932 5.976563-7.954102 2.343762-3.1347809 5.390606-7.0458746 9.140625-11.733398.761723-1.0546928 1.611323-2.0800731 2.548828-3.0761719.937505-.9960987 1.977533-1.8896445 3.120117-2.680664 1.142584-.7910196 2.402337-1.4355444 3.779297-1.9335938s2.915031-.7470703 4.614258-.7470703c2.812514 0 4.980461.3076141 6.503906.9228516 1.523445.6152374 2.636715 1.3623003 3.339844 2.2412109.703129.8789106 1.113281 1.801753 1.230469 2.7685547.117188.9668017.175781 1.8017543.175781 2.5048828 0 1.406257-.556635 2.9589759-1.669922 4.6582031-1.113287 1.6992273-2.343743 3.3398359-3.691406 4.921875-1.347663 1.5820389-2.622064 3.0322199-3.823242 4.3505859-1.201178 1.318366-1.889648 2.299802-2.06543 2.944336 0 1.816415.131835 3.471672.395508 4.96582.263673 1.494148.615232 2.958978 1.054687 4.394532.439456 1.435554.893553 2.958976 1.362305 4.570312.468752 1.611336.922849 3.471669 1.362305 5.581055.439455 2.109385.498048 5.009747.175781 8.701172-.322267 3.691424-.483398 7.41209-.483398 11.162109 2.109385-1.406257 4.37987-2.680658 6.811523-3.823242 2.431653-1.142584 4.965807-2.329096 7.602539-3.55957 2.636732-1.230475 5.346666-2.592766 8.129883-4.086915 2.783217-1.494148 5.668931-3.338143 8.481445-5.447528 0 0 2.388795-.29225 3.342583.381485 1.846985 1.304668 2.78598 5.377643 2.78598 7.929954 0 2.552311.014808 5.000118-1.270584 7.069679-1.555499 2.50445-4.857979 4.348637-4.857979 4.348637-3.632831 2.812514-7.83689 5.449206-12.612305 7.910156-4.775414 2.46095-9.78513 4.628897-15.029296 6.503906-5.244167 1.87501-10.546849 3.354487-15.908204 4.438477-5.361354 1.08399-10.444311 1.625977-15.249023 1.625977-3.457049 0-6.679673-.322263-9.667969-.966797-2.988296-.644535-5.61034-1.655267-7.866211-3.032227-2.25587-1.37696-4.086907-3.1787-5.493164-5.405273-1.406257-2.226574-2.255858-4.921859-2.548828-8.085938-.820316.175782-1.625972.292969-2.416992.351563-.79102.058594-1.567379.08789-2.329102.08789-.937504 0-1.816402-.029296-2.636718-.08789-.820317-.058594-1.523435-.278319-2.109375-.65918-.585941-.380861-1.054686-.996089-1.40625-1.845703-.351565-.849614-.527344-2.065422-.527344-3.647461 0-1.406257.351559-2.709955 1.054687-3.911133.703129-1.201178 1.523433-2.270503 2.460938-3.208008.937505-.937504 1.874995-1.757809 2.8125-2.460937.937505-.703129 1.640623-1.259764 2.109375-1.669922 3.281266-2.812514 5.947255-5.156241 7.998047-7.03125zm3.251953 18.28125c.703128 0 1.479488.439449 2.329101 1.318359.849614.878911 1.83105 1.845698 2.944336 2.900391 1.113287 1.054693 2.402337 2.02148 3.867188 2.900391 1.464851.87891 3.134756 1.318359 5.009766 1.318359 2.285167 0 4.174797-.380856 5.668945-1.142578 1.494148-.761723 2.680659-1.772455 3.55957-3.032227s1.494139-2.724601 1.845703-4.394531c.351565-1.66993.527344-3.413077.527344-5.229492 0-1.582039-.102538-3.193351-.307617-4.833984-.205079-1.640634-.175783-3.676746.08789-6.108399.263674-2.431653.20508-4.306634-.175781-5.625-.380861-1.318366-.717772-2.446284-1.010742-3.383789L577.560547 146.25zM161.12 217.2v-1.6c0-6.24 1-9.72 5.16-9.72h.36c3.4 0 4.32 2.48 4.32 6.76h6.48v-1.44c0-7.8-3.76-10.92-11.16-10.92-8.12 0-11.72 4.52-11.72 15.32v1.6c0 10.8 3.6 15.32 11.72 15.32 7.4 0 11.16-3.12 11.16-10.8v-.36h-6.48c0 3.36-1.16 5.56-4.32 5.56h-.36c-4.16 0-5.16-3.48-5.16-9.72zm38.12 14.8v-5.6h-11.52v-25.6h-6.48V232h18zm2.84-31.2V232h19.08v-5.6h-12.6v-7.52h10.6v-5.6h-10.6v-6.88h12.6v-5.6h-19.08zm29.04-.08l-7.8 31.28h6.96l1.48-6.72h7.64l1.52 6.72h6.92l-7.8-31.28h-8.92zm4.44 7.48l2.56 11.48H233l2.56-11.48zm37.92-7.4h-6.16v13.08l.2 6.28-10.04-19.36h-6.84V232h6.12v-13.08l-.2-6.28L266.64 232h6.84v-31.2zm11.16 0h-6.48V232h6.48v-31.2zm27.48 0h-6.16v13.08l.2 6.28-10.04-19.36h-6.84V232h6.12v-13.08l-.2-6.28L305.28 232h6.84v-31.2zm16.16 31.72c5.44 0 8.6-1.72 10.92-3.64v-13.76h-10.6v5.6h4.12v5c-.96.68-2.4 1.2-4.24 1.2h-.36c-4.56 0-5.6-3.48-5.6-9.72v-1.6c0-6.24 1.08-9.72 5.36-9.72h.36c3.6 0 4.52 2.48 4.52 6.76h6.48v-1.44c0-7.8-3.92-10.92-11.36-10.92-8.08 0-11.96 4.52-11.96 15.32v1.6c0 10.8 3.88 15.32 12.36 15.32zm32.6-13.56c4.52.6 5.68 1.84 5.68 4.08v.2c0 2.08-1.48 3.68-4.48 3.68h-.36c-3 0-4.6-1.64-4.6-5.56h-6.48v.36c0 7.52 3.88 10.8 11.24 10.8 7.32 0 11.28-3.48 11.28-9.48v-.4c0-5.8-3.44-8.12-10.24-9.04-4.56-.6-5.48-1.8-5.48-4.08v-.2c0-2 1.52-3.44 4.12-3.44h.36c3.28 0 4.52 1.88 4.52 5.96h6.48V211c0-7.32-3.36-10.72-11.04-10.72-7.12 0-11 3.64-11 9.28v.44c0 5.64 3.2 8.04 10 8.96zm15.88-18.16V232h19.08v-5.6h-12.6v-7.52h10.6v-5.6h-10.6v-6.88h12.6v-5.6h-19.08zm29.4 20h3.32l4.28 11.2h7l-4.92-12.12c2.8-1.16 4.92-3.64 4.92-8.68v-.8c0-8.28-5.76-9.6-10.84-9.6h-10.24V232h6.48v-11.2zm0-5.6v-8.8h4.04c1.76 0 4 .68 4 4.2v.4c0 3.52-2.24 4.2-4 4.2h-4.04zm33.48 16.88l7.8-31.28h-6.96l-5.32 23.8-5.32-23.8h-6.92l7.8 31.28h8.92zm17.28-31.28h-6.48V232h6.48v-31.2zm10.52 16.4v-1.6c0-6.24 1-9.72 5.16-9.72h.36c3.4 0 4.32 2.48 4.32 6.76h6.48v-1.44c0-7.8-3.76-10.92-11.16-10.92-8.12 0-11.72 4.52-11.72 15.32v1.6c0 10.8 3.6 15.32 11.72 15.32 7.4 0 11.16-3.12 11.16-10.8v-.36h-6.48c0 3.36-1.16 5.56-4.32 5.56h-.36c-4.16 0-5.16-3.48-5.16-9.72zm20.12-16.4V232h19.08v-5.6h-12.6v-7.52h10.6v-5.6h-10.6v-6.88h12.6v-5.6h-19.08z"/><path d="M121.929688 125.933594c-1.230475 6.210968-1.845704 11.601539-1.845704 16.171875 0 3.984395.834953 7.104481 2.504883 9.360351 1.66993 2.255871 4.438457 3.383789 8.305664 3.383789 1.464851 0 3.222646-.4248 5.273438-1.274414 2.050791-.849613 4.394518-2.182608 7.03125-3.999023 2.636732-1.816415 5.581038-4.160142 8.833008-7.03125 3.251969-2.871108 12.438502-12.323795 16.422897-16.30819.175782.351565 1.999066 2.379869 2.526413 3.668938.468752 1.113287 2.672679 2.963902 3.522293 5.219773.849614 2.25587-6.548759 9.997584-5.025314 13.923385-4.394554 4.62893-8.803689 8.701154-13.227539 12.216797-4.423851 3.515643-8.730448 6.459949-12.919922 8.833008-4.189474 2.373059-8.203106 4.16015-12.041016 5.361328-3.83791 1.201178-7.368148 1.801758-10.59082 1.801758-3.691425 0-7.119125-.68847-10.283203-2.06543-3.164079-1.37696-5.903309-3.383776-8.217774-6.020508-2.3144645-2.636732-4.1455009-5.874004-5.4931639-9.711914-1.347663-3.83791-2.0214843-8.217749-2.0214843-13.139648 0-1.699227.1757794-3.837878.5273437-6.416016.3515643-2.578138.8642544-5.507796 1.5380859-8.789062.6738315-3.281267 1.5234324-7.309547 2.5488282-12.084961 1.0253954-4.775415 2.1240174-9.331033 3.2958984-13.666992-7.8516018.820316-15.3808233 1.582027-22.5878906 2.285156-7.2070673.703128-14.3847299 1.37695-21.5332031 2.021484-1.6406333 4.9219-3.2665936 9.88767-4.8779297 14.897461-1.6113362 5.009791-3.1640551 9.580058-4.6582032 13.710938-1.4941481 4.13088-2.8710874 7.910139-4.1308593 11.33789-1.259772 3.427752-2.3290972 6.342762-3.2080079 8.745117-4.0429889 8.437543-6.914054 13.417962-8.6132812 14.941407-2.75392 2.578138-5.2148329 3.867187-7.3828125 3.867187-1.406257 0-2.7831964-.234373-4.1308594-.703125-1.347663-.468752-2.5488228-1.142574-3.6035156-2.021484-1.0546928-.878911-1.8896454-1.933588-2.5048828-3.164063-.6152375-1.230475-.9228516-2.607414-.9228516-4.130859 0-.937505.1171864-1.845699.3515625-2.724609 2.1093856-9.668018 4.8925609-18.925738 8.3496094-27.773438 3.3984545-8.8477 6.3281127-17.25582 8.7890625-25.224609-3.2226724 0-6.3134618-.249021-9.2724609-.747071-2.9589992-.498049-5.6982296-1.362298-8.2177735-2.592773-2.5195438-1.230475-4.7607323-2.929677-6.7236328-5.097656-1.9629004-2.16798-3.5888607-4.9218587-4.8779297-8.2617191-.2343762-1.0546928-.424804-1.9921834-.571289-2.8125-.1464851-.8203166-.2197266-1.6406209-.2197266-2.4609375 0-2.5781379.908194-3.8671875 2.7246094-3.8671875 1.1132868 0 2.3437432.6005799 3.6914062 1.8017578 1.347663 1.2011779 3.0761614 3.120104 5.1855469 5.7568359 2.75392-.1171881 5.5077987-.2050778 8.2617187-.2636718 2.7539201-.0585941 5.7128749-.0878907 8.8769532-.0878907h8.4375c2.1093855-5.449246 4.1308497-10.6933342 6.0644531-15.7324219C47.6914183 70.5038734 49.4492132 65.5234545 50.5625 62.125c.9960987-3.1054843 1.7871064-6.210922 2.3730469-9.3164062.5859404-3.1054843.8789062-6.0644391.8789062-8.8769532 0-2.2851677-.205076-4.3945216-.6152343-6.328125-.4101584-1.9336034-1.0839797-3.574212-2.0214844-4.921875-.9375047-1.347663-2.1386646-2.4023399-3.6035157-3.1640625C46.1093677 28.7558556 44.2929796 28.375 42.125 28.375c-1.7578213 0-3.7939337.2929658-6.1083984.8789062-2.3144647.5859405-4.8779157 1.5380794-7.6904297 2.8564454-2.8125141 1.3183659-5.8740069 3.0468643-9.1845703 5.1855468C15.8310381 39.434581 12.2422068 42.0859217 8.375 45.25c-1.347663 1.1132868-2.5927677 1.9042945-3.7353516 2.3730469-1.1425838.4687523-2.1826125.703125-3.1201171.703125-.4687524 0-.8203114-.7763594-1.0546875-2.3291016-.2343762-1.5527421-.3515625-3.4716682-.3515625-5.7568359 0-3.0468903.7177662-5.9472519 2.1533203-8.7011719 1.435554-2.75392 3.3544801-5.2880744 5.7568359-7.6025391 2.4023558-2.3144647 5.1708828-4.4238186 8.3056641-6.328125 3.1347813-1.9043064 6.3574053-3.5156184 9.6679687-4.8339843 3.3105634-1.318366 6.6064289-2.3290981 9.8876953-3.0322266C39.166032 9.039059 42.18358 8.6875 44.9375 8.6875c4.101583 0 8.027325.556635 11.7773437 1.6699219 3.7500188 1.1132868 7.0458843 2.9003783 9.8876954 5.3613281 2.841811 2.4609498 5.0976479 5.6542772 6.7675781 9.5800781C75.0400474 29.224629 75.875 33.9999719 75.875 39.625c0 2.6367319-.3076141 5.859356-.9228516 9.6679688-.6152374 3.8086127-1.45019 7.9833757-2.5048828 12.524414-1.0546927 4.5410383-2.2997975 9.3749744-3.7353515 14.5019531-1.4355541 5.1269788-2.9736246 10.3564187-4.6142579 15.6884766 6.0351865-.4101583 12.8319935-.8203104 20.390625-1.2304687 7.5586316-.4101584 15.1464463-.8203105 22.7636718-1.2304688 2.988296-9.7852052 6.284162-19.9071743 9.887695-30.3662109 3.603534-10.4590367 7.426738-20.7274887 11.469727-30.8056641 1.347663-3.3398604 3.120106-6.0058494 5.317383-7.9980469 2.197276-1.9921974 4.790024-2.9882812 7.77832-2.9882812 1.230475 0 2.416987.1757795 3.55957.5273437 1.142584.3515643 2.153316.8935511 3.032227 1.6259766s1.56738 1.6699161 2.06543 2.8125c.498049 1.1425838.74707 2.4755783.74707 3.9990234 0 1.347663-.08789 2.9150302-.263672 4.7021485-.175782 1.7871183-.644527 3.7060444-1.40625 5.7568359-1.347663 3.6328307-2.783195 7.5146278-4.306641 11.6455078-1.523445 4.13088-3.061515 8.3788844-4.614257 12.7441406-1.552742 4.3652562-3.105461 8.832985-4.658203 13.4033204-1.552743 4.5703353-3.03222 9.1113055-4.438477 13.6230468 3.691425-.2343761 6.914049-.4541005 9.667969-.6591797 2.75392-.2050791 4.833977-.3662103 6.240234-.4833984.644535-.058594 1.245115-.1025389 1.801758-.1318359.556643-.0292971 1.069334-.0439454 1.538086-.0439454 1.757821 0 3.178705.1757795 4.262695.5273438 1.08399.3515643 1.933591.8496062 2.548828 1.4941406.615238.6445345 1.040038 1.4062456 1.274414 2.2851563.234377.8789106.351563 1.8749944.351563 2.9882812 0 1.2304749-.263669 2.2558553-.791016 3.0761719-.527346.8203166-1.186519 1.4794897-1.977539 1.9775391-.791019.4980493-1.625972.8496079-2.504883 1.0546879-.87891.205079-1.699215.336913-2.460937.395507-1.640633.175783-2.812497.307617-3.515625.395508-.703129.087891-1.201171.146484-1.494141.175781-.29297.029297-.483398.058594-.571289.087891-.087891.029297-.307615.058594-.65918.087891-.351564.029297-.966792.073242-1.845703.131836-.87891.058594-2.226553.17578-4.042968.351562-2.109386.234376-4.174795.439452-6.196289.615235-2.021495.175782-4.028311.351561-6.020508.527343-.996099 2.871108-2.695301 10.48822-5.097656 22.851563z"/></g></svg>